<?xml version="1.0" encoding="UTF-8"?>
<svg id="Layer_1" data-name="Layer 1" xmlns="http://www.w3.org/2000/svg" viewBox="0 0 841.53 597.32">
  <defs>
    <style>
      .cls-1 {
        fill: #fff;
      }

      .cls-2 {
        fill: #ff6004;
      }

      .cls-3 {
        fill: #27265f;
      }
    </style>
  </defs>
  <rect class="cls-3" width="841.53" height="597.32"/>
  <path class="cls-2" d="m540.39,280.76c0,14.95-.03,29.89.03,44.84,0,1.76-.37,2.43-2.3,2.39-6.07-.13-12.15-.13-18.22,0-1.96.04-2.33-.69-2.32-2.43.06-11.34.03-22.69.02-34.03,0-2.75-.02-2.75-2.81-2.75-10.28,0-20.56,0-30.84,0-2.68,0-2.71.02-2.71,2.65,0,11.28,0,22.55,0,33.83,0,2.67,0,2.68-2.59,2.68-5.94,0-11.88-.08-17.82.05-1.98.04-2.41-.61-2.4-2.49.06-29.96.05-59.92,0-89.88,0-1.78.4-2.43,2.31-2.39,5.87.12,11.75.04,17.62.05q2.87,0,2.88,2.8c0,10.48,0,20.95,0,31.43q0,3,2.91,3.01c10.21,0,20.43,0,30.64,0,2.8,0,2.81,0,2.81-2.9,0-10.54,0-21.09,0-31.63,0-2.7,0-2.7,2.78-2.7,5.94,0,11.88.07,17.82-.04,1.82-.04,2.22.57,2.21,2.28-.06,15.08-.04,30.16-.04,45.24Z"/>
  <path class="cls-1" d="m159.56,383.76c-7.38.15-13.9-1.9-19.71-5.96-10.18-7.11-15.31-17-15.31-29.41,0-36.55.08-73.11.12-109.66,0-2.06,0-4.11,0-6.29,3.76-.4,7.11.32,10.41,1.32,13.67,4.15,23.57,16.23,24.48,30.47.45,7.1.11,14.25.13,21.38,0,.6-.01,1.2-.01,1.8-.04,31.35-.07,62.7-.11,94.05,0,.71,0,1.43,0,2.3Z"/>
  <path class="cls-2" d="m609.45,262.12c0-2.05.07-4.64-.03-7.23-.06-1.55.44-2.09,2.04-2.07,6.14.08,12.28.1,18.42-.01,1.89-.03,2.33.62,2.33,2.4-.06,18.08-.03,36.15-.03,54.23,0,5.54-.04,11.07.03,16.61.02,1.5-.47,1.94-1.96,1.92-6.27-.07-12.55-.09-18.82,0-1.66.03-2.05-.58-2-2.08.09-2.59.02-5.19.02-8.05-.51.27-.85.33-1.01.54-6.31,8.2-14.85,11.2-24.86,10.45-14-1.05-23.17-8.9-27.73-21.66-5.16-14.43-4.55-28.8,4.14-41.95,9.66-14.63,30.74-18.11,44.07-7.59,1.87,1.48,3.68,3.04,5.4,4.46Zm-16.77,9.4c-6.95.02-13.13,4.43-15.38,11.03-1.36,3.99-1.51,8.07-.85,12.23,1.27,7.93,7.23,13.69,15.43,14.32,7,.54,13.59-3.63,16.22-10.91,1.38-3.82,1.54-7.78,1-11.82-1.13-8.49-8.11-14.87-16.43-14.85Z"/>
  <path class="cls-1" d="m74.6,331.55c-4.98-.04-9.67-.88-14.03-2.98-13.37-6.43-20.66-17.1-20.76-31.96-.2-28.23-.02-56.45,0-84.68,0-6.72,0-13.45,0-20.38,4.61-.13,8.67.73,12.6,2.21,13.56,5.11,22.59,18.16,22.58,32.61-.01,25.09-.03,50.18-.08,75.27-.02,9.34-.11,18.68-.18,28.01,0,.58-.08,1.16-.14,1.9Z"/>
  <g>
    <path class="cls-1" d="m227.98,299.74c.71,4.87,2.77,8.63,7.71,10.06,3.94,1.14,7.83.88,11.35-1.36,4.23-2.7,5.05-8.97,1.32-12.29-2.32-2.07-5.22-3.7-8.13-4.85-6.43-2.53-13.07-4.54-19.56-6.92-4.05-1.48-7.59-3.83-10.65-6.91-5.34-5.37-6.89-11.97-6.52-19.26.51-10.27,5.45-17.89,14.65-22.13,14.21-6.54,28.63-6.42,42.45,1.17,8.44,4.64,12.59,12.38,13.16,21.99.02.31-.03.63-.06,1.16-1.87,0-3.66,0-5.45,0-5.94,0-11.88-.03-17.82.02-1.28.01-1.8-.27-2.04-1.69-1.46-8.82-12.64-10.06-17.29-6.37-4.21,3.34-4.11,10.25.57,13.03,3.74,2.22,7.93,3.73,11.99,5.37,5.24,2.12,10.68,3.79,15.82,6.12,7.54,3.41,13.37,8.64,15.04,17.2,2.56,13.12-3.02,25.19-15.28,30.83-15.12,6.95-30.29,6.03-44.4-3-7.81-4.99-11.37-12.78-11.67-22.19h24.82Z"/>
    <path class="cls-1" d="m312.95,282.37c3.86-5.17,7.72-10.34,11.58-15.52,3.23-4.33,6.41-8.7,9.7-12.98.5-.65,1.44-1.34,2.19-1.34,8.81-.09,17.62-.06,26.44-.05.24,0,.49.08,1.13.19-10.54,12.72-20.89,25.22-31.34,37.83,10.47,12.44,20.89,24.82,31.56,37.49-.93.06-1.54.12-2.15.12-8.28,0-16.56-.03-24.83.04-1.43.01-2.29-.44-3.12-1.59-6.46-8.99-12.99-17.93-19.5-26.89-.54-.74-1.08-1.47-1.97-2.68v30.98h-23.29v-99.9h23.11v54.15c.17.05.33.1.5.15Z"/>
    <path class="cls-1" d="m407.79,299.3c1.51-4.07,2.94-7.86,4.33-11.65,4.08-11.12,8.16-22.24,12.19-33.38.48-1.32,1.08-1.87,2.56-1.85,7.07.08,14.15.04,21.23.04.59,0,1.17.06,2.04.11-.26.78-.42,1.39-.67,1.97-15.27,35.89-30.56,71.77-45.8,107.68-.6,1.41-1.3,1.87-2.78,1.85-7.01-.07-14.02-.03-21.03-.03-.59,0-1.18,0-2.05,0,.32-.83.51-1.43.77-2.01,5.22-11.59,10.42-23.19,15.7-34.76.57-1.26.58-2.25.04-3.53-9.76-23.05-19.47-46.13-29.18-69.2-.23-.54-.4-1.1-.7-1.92.82-.06,1.45-.15,2.07-.15,7.34,0,14.69.04,22.03-.04,1.46-.02,2.09.48,2.58,1.82,5.29,14.43,10.63,28.84,15.97,43.26.18.49.38.98.7,1.8Z"/>
  </g>
  <path class="cls-2" d="m672.53,262.22c2.81-3.51,6.22-6.22,10.37-7.94,9.9-4.1,24.69-3.09,32.89,5.87,4.44,4.86,6.98,10.57,7.61,17.03.45,4.63.45,9.31.47,13.98.06,11.41.02,22.81.02,34.22q0,2.57-2.65,2.57c-6.01,0-12.01-.05-18.02.03-1.59.02-2.04-.46-2.04-2.03.05-13.14.04-26.28.02-39.43,0-3.6-.81-7.03-2.95-10-3.46-4.79-10.12-6.74-16.39-4.87-5.47,1.63-9.53,6.64-9.65,12.69-.24,12.13-.22,24.27-.3,36.41-.01,1.87-.04,3.74,0,5.6.03,1.21-.48,1.62-1.68,1.61-6.47-.04-12.95-.05-19.42,0-1.34.01-1.72-.46-1.7-1.74.05-5.34.02-10.67.02-16.01,0-18.28.03-36.56-.05-54.84,0-2.02.51-2.62,2.55-2.58,6.07.13,12.15.1,18.22.02,1.6-.02,2.13.54,2.07,2.08-.08,2.37-.02,4.75-.02,7.12.2.07.41.13.61.2Z"/>
  <path class="cls-2" d="m801.03,277.11c-6.9,0-13.43.02-19.96-.05-.45,0-1.13-.62-1.32-1.1-2.46-6.46-10.15-9.48-16.35-6.33-1.93.98-3.06,2.51-3.13,4.74-.08,2.37,1.08,4.09,3.14,4.89,3.22,1.25,6.55,2.2,9.86,3.22,4.9,1.51,9.93,2.66,14.69,4.52,8.3,3.24,13.29,9.31,13.52,18.48.22,8.97-4.01,15.78-12.03,19.38-14.76,6.63-29.34,5.96-42.92-3.36-5.6-3.85-8.86-9.51-9.91-16.31-.08-.51-.01-1.03-.01-1.82,1.05,0,2.03,0,3.01,0,5.87,0,11.75,0,17.62,0,.98,0,1.68.03,2.03,1.28,1.32,4.71,4.9,6.97,9.44,7.38,2.56.23,5.29-.3,7.8-1.02,2.29-.66,3.48-2.71,3.45-5.12-.03-2.29-1.37-4-3.47-4.7-4.8-1.59-9.67-2.95-14.51-4.41-3.06-.92-6.17-1.7-9.16-2.83-7.73-2.91-13.18-7.9-13.88-16.62-.73-8.99,2.8-16.02,10.53-20.73,7.42-4.53,15.68-5.55,24.11-4.64,4.11.45,8.37,1.33,12.12,3.01,9.28,4.16,14.08,11.79,15.32,22.14Z"/>
  <path class="cls-2" d="m117.36,232.52c0,3.04,0,5.76,0,8.48,0,7.13-.08,14.26.01,21.39.03,1.96-.67,2.51-2.54,2.5-9.6-.07-19.2-.03-28.8-.03-3.16,0-3.41-.23-2.84-3.28,2.1-11.23,8.1-19.67,18.17-25.14,4.22-2.29,8.78-3.42,13.53-3.9.71-.07,1.44-.01,2.47-.01Z"/>
  <path class="cls-2" d="m116.75,300.24c-.25,4.19-1.37,8-3.21,11.55-6.1,11.75-15.73,18.29-28.99,19.42-1.78.15-2.29-.42-2.25-2.2.17-8.87.26-17.73.27-26.6,0-1.85.65-2.33,2.45-2.31,9.88.08,19.75.04,29.63.04.65,0,1.3.06,2.1.09Z"/>
  <path class="cls-2" d="m543.57,402.27c1.67-5.86,3.3-11.14,4.64-16.48.52-2.05,1.48-2.4,3.43-1.84-1.1,3.53-2.18,7.01-3.26,10.49-.99,3.17-2.04,6.33-2.97,9.53-.31,1.08-.79,1.48-1.94,1.47-1.16,0-1.59-.45-1.93-1.5-1.68-5.26-3.44-10.49-5.34-16.22-.4,1.07-.67,1.71-.89,2.37-1.55,4.67-3.12,9.34-4.6,14.03-.32,1.02-.83,1.33-1.85,1.31-.95-.02-1.61-.12-1.93-1.19-2-6.55-4.06-13.09-6.08-19.64-.06-.18,0-.39,0-.68,1.79-.54,2.78-.14,3.32,1.93,1.36,5.27,2.97,10.47,4.65,16.29.79-2.36,1.43-4.2,2.03-6.06,1.15-3.54,2.3-7.09,3.41-10.65.32-1.01.59-1.76,1.97-1.75,1.34,0,1.66.67,1.98,1.71,1.71,5.46,3.46,10.9,5.37,16.89Z"/>
  <path class="cls-2" d="m243.58,387.69v-11.46h2.66v29.06h-2.63c-.06-1.17-.11-2.32-.19-3.95-2.61,3.38-5.76,4.77-9.6,4.36-2.62-.28-4.85-1.4-6.58-3.42-3.72-4.33-3.36-12.25.71-16.12,4.26-4.05,10.07-3.59,15.63,1.53Zm-15.93,6.82c0,5.23,3.14,8.71,7.85,8.69,4.68-.02,8-3.6,8.01-8.63.01-5.02-3.32-8.54-8.07-8.51-4.75.03-7.79,3.32-7.79,8.46Z"/>
  <path class="cls-2" d="m572.69,387.45c.06-1.21.12-2.31.19-3.56h2.65v21.41h-2.65c-.06-1.17-.11-2.32-.19-3.95-2.62,3.33-5.74,4.77-9.58,4.36-2.61-.28-4.84-1.39-6.58-3.4-3.59-4.16-3.44-11.92.32-15.85,4.12-4.31,9.87-4,15.84.99Zm-7.76-1.4c-4.73-.05-7.93,3.16-8.01,8.04-.09,5.53,2.99,9.11,7.83,9.1,4.68,0,8-3.57,8.03-8.61.03-4.92-3.24-8.48-7.85-8.53Z"/>
  <path class="cls-2" d="m419.39,387.7v-3.85h2.68v21.4h-2.59c-.07-1.2-.15-2.35-.22-3.63-5.62,5.12-11.57,5.47-15.8,1.04-4.01-4.19-3.91-12.41.18-16.42,4.23-4.14,10.41-3.7,15.76,1.45Zm-15.89,6.77c-.01,5.24,3.09,8.72,7.81,8.73,4.67.01,8-3.54,8.05-8.59.05-5-3.3-8.57-8.03-8.56-4.76.01-7.82,3.3-7.83,8.42Z"/>
  <path class="cls-2" d="m322.31,405.3h-2.58c-.07-1.23-.14-2.38-.22-3.64-5.9,5.13-11.75,5.41-15.93.89-3.94-4.26-3.73-12.5.43-16.42,4.27-4.02,10.43-3.53,15.45,1.42.1-1.3.19-2.43.28-3.68h2.56v21.44Zm-18.56-10.84c-.01,5.24,3.09,8.72,7.8,8.73,4.67.01,8.01-3.54,8.06-8.59.05-5-3.3-8.57-8.02-8.56-4.76,0-7.82,3.29-7.83,8.41Z"/>
  <path class="cls-2" d="m597.9,395.75c.05,3.81,2.06,6.37,5.55,7.27,3.54.92,6.84-.31,8.35-3.37.88-1.78,2.15-.96,3.38-1.05-1.03,4.63-5.13,7.4-10.45,7.16-4.6-.21-8.23-3.1-9.49-7.55-1.42-5.05.2-10.44,3.92-12.94,3.81-2.57,9.21-2.46,12.76.28,2.96,2.29,3.87,5.44,3.78,9.03-.03,1.37-.97,1.18-1.83,1.18-4.61,0-9.21,0-13.82,0-.72,0-1.45,0-2.17,0Zm0-2.64h14.7c-.1-4.42-3.06-7.25-7.3-7.19-4.24.05-7.29,3.02-7.41,7.19Z"/>
  <path class="cls-2" d="m630.37,398.38c1.91-.56,2.86-.23,3.66,1.66,1.64,3.9,8.36,4.36,10.85.94,1.81-2.49.85-5.9-2.16-7.1-2.1-.83-4.32-1.34-6.46-2.07-4.26-1.45-5.92-3.72-5.64-7.59.26-3.46,2.81-5.97,6.91-6.63,3.45-.55,6.72-.13,9.14,2.69.85.99,1.29,2.33,1.97,3.63-2.04.47-3.15.35-4.13-1.42-1.7-3.09-7.18-3.48-9.7-.97-2.29,2.3-1.56,6.05,1.59,7.4,2.19.94,4.54,1.51,6.8,2.29,4,1.4,5.68,3.68,5.45,7.33-.21,3.43-2.71,6.07-6.48,6.89-2.79.61-5.46.3-7.95-1.07-2.31-1.27-3.62-3.25-3.87-6Z"/>
  <path class="cls-2" d="m446.79,398.26h3.22c2.41,4.51,4.64,5.71,8.78,4.69,2.23-.55,3.79-2.34,3.93-4.5.13-2.02-1.01-3.82-3.16-4.61-2.18-.8-4.46-1.35-6.66-2.11-3.96-1.37-5.58-3.67-5.34-7.41.21-3.36,2.66-5.94,6.43-6.64,3.57-.66,6.99-.36,9.57,2.55.87.98,1.34,2.33,2.11,3.73-2,.31-3.17.5-4.16-1.38-1.68-3.2-7.32-3.6-9.81-.97-2.17,2.29-1.47,5.97,1.58,7.29,2.25.98,4.67,1.56,6.99,2.37,3.95,1.38,5.62,3.74,5.35,7.4-.25,3.35-2.72,5.99-6.39,6.75-3.66.76-7.14.33-9.81-2.48-1.1-1.16-1.63-2.87-2.61-4.68Z"/>
  <path class="cls-2" d="m652.9,394.51c.03-6.53,4.49-11.1,10.8-11.09,6.41.01,10.98,4.73,10.89,11.25-.09,6.58-4.64,11.13-11.08,11.09-6.31-.05-10.65-4.64-10.62-11.25Zm18.65-.01c-.04-4.72-2.7-8-6.81-8.39-4.6-.44-7.79,1.86-8.73,6.29-1.06,4.96,1.33,9.51,5.53,10.53,5.6,1.36,10.06-2.4,10.01-8.43Z"/>
  <path class="cls-2" d="m735.02,394.51c.03-6.53,4.48-11.1,10.8-11.1,6.41,0,10.98,4.72,10.9,11.24-.08,6.57-4.64,11.14-11.07,11.09-6.31-.04-10.66-4.64-10.63-11.24Zm18.65.15c.03-4.72-2.58-8.08-6.64-8.55-4.66-.53-7.97,1.81-8.91,6.3-1.04,4.97,1.36,9.5,5.57,10.5,5.53,1.32,9.94-2.33,9.99-8.26Z"/>
  <path class="cls-2" d="m469.44,394.52c.03-6.53,4.48-11.11,10.79-11.1,6.41,0,10.98,4.72,10.91,11.23-.08,6.57-4.63,11.14-11.06,11.1-6.32-.04-10.66-4.63-10.63-11.23Zm18.65.03c-.01-4.72-2.66-8.03-6.76-8.44-4.6-.47-7.8,1.81-8.77,6.23-1.11,5.04,1.35,9.64,5.65,10.6,5.55,1.24,9.89-2.45,9.87-8.39Z"/>
  <path class="cls-2" d="m350.47,394.68c-.04-6.55,4.33-11.18,10.63-11.26,6.42-.08,11.03,4.53,11.07,11.07.04,6.54-4.52,11.25-10.9,11.26-6.36.01-10.75-4.49-10.79-11.07Zm18.65-.11c0-4.72-2.64-8.04-6.74-8.46-4.6-.48-7.8,1.79-8.78,6.21-1.12,5.03,1.33,9.65,5.63,10.62,5.55,1.25,9.9-2.43,9.89-8.37Z"/>
  <path class="cls-2" d="m268.59,383.84h2.9v21.46h-2.77c-.08-.86-.15-1.64-.26-2.75-2.07,2.23-4.45,3.29-7.32,3.24-4.49-.08-7.69-2.78-8.4-7.24-.15-.91-.17-1.85-.18-2.78-.02-3.92,0-7.84,0-11.89h2.75c.04.65.11,1.36.12,2.06.01,3.33-.01,6.66.01,10,.03,4.79,2.29,7.28,6.55,7.27,4.13-.01,6.54-2.66,6.58-7.34.03-3.27,0-6.53,0-9.8,0-.71,0-1.43,0-2.23Z"/>
  <path class="cls-2" d="m688.25,383.8h2.48c.04.75.12,1.45.12,2.16.01,3.47-.04,6.93.02,10.4.08,4.38,2.36,6.79,6.37,6.85,4.05.06,6.63-2.46,6.74-6.76.09-3.46.02-6.93.03-10.4,0-.72.06-1.43.09-2.2h2.81v21.39h-2.79c-.07-.82-.13-1.6-.23-2.72-2.24,2.49-4.87,3.45-7.95,3.25-3.92-.26-7.32-2.81-7.61-6.65-.38-5.01-.09-10.08-.09-15.32Z"/>
  <path class="cls-2" d="m219.56,390.15v2.48h-10.23v10.27h11.38c.05.9.08,1.54.12,2.34h-14.34v-27.43h14.22v2.25h-11.39v10.09h10.23Z"/>
  <path class="cls-2" d="m764.7,405.29h-2.59v-21.42h2.58c.08.91.15,1.74.24,2.75,3.2-3.34,6.88-4.14,11-2.48,3.1,1.25,4.71,3.8,4.85,7,.2,4.65.05,9.32.05,14.12h-2.8c0-3.35,0-6.67,0-9.99,0-.87.01-1.74-.02-2.6-.14-4.21-2.43-6.67-6.31-6.77-3.97-.1-6.72,2.52-6.85,6.74-.11,3.73-.03,7.47-.05,11.21,0,.45-.07.9-.11,1.45Z"/>
  <path class="cls-2" d="m395.91,405.28h-2.83c0-3.22,0-6.34,0-9.46,0-1.07.02-2.14-.02-3.2-.14-4.19-2.48-6.66-6.35-6.72-3.9-.07-6.63,2.48-6.79,6.59-.14,3.53-.04,7.07-.05,10.61,0,.66,0,1.32,0,2.14h-2.72v-21.38h2.59c.06.83.13,1.66.17,2.28,1.71-.84,3.4-2.04,5.27-2.51,5.67-1.43,10.55,2.34,10.71,8.16.12,4.45.02,8.91.02,13.5Z"/>
  <path class="cls-2" d="m785.45,399.4c1.75-.37,2.76-.38,3.57,1.39,1.29,2.81,6.52,3.4,8.79,1.25,1.86-1.77,1.35-4.19-1.22-5.18-2.23-.85-4.59-1.37-6.82-2.22-2.75-1.05-3.96-3.01-3.75-5.7.04-.52.18-1.05.38-1.53,1.24-2.91,4.92-4.51,8.85-3.86,3.93.65,5.93,2.69,6.21,6.43-1.49.33-2.57.53-3.3-1.51-1.07-3.01-6.81-3.43-8.69-.83-1.16,1.6-.58,3.63,1.49,4.61,1.31.63,2.76.97,4.13,1.45,1.31.47,2.7.81,3.91,1.47,2.88,1.57,3.63,4.89,1.83,7.53-3.1,4.56-12.35,3.89-14.73-1.08-.31-.64-.41-1.37-.66-2.23Z"/>
  <path class="cls-2" d="m296.24,397.88c-.44,5.33-5.02,8.36-10.49,7.85-5.77-.54-9.49-5.07-9.39-11.4.1-6.29,3.99-10.57,9.9-10.9,5.42-.3,9.74,2.74,10.34,7.32-1.74.55-2.79.13-3.69-1.68-1.36-2.71-4.03-3.24-6.86-3.03-3.15.24-5.4,1.91-6.14,4.86-.53,2.12-.54,4.51-.17,6.67.57,3.37,3.01,5.29,6.35,5.7,3.15.38,5.58-1.08,7.39-4,.46-.75,1.81-.94,2.75-1.39Z"/>
  <path class="cls-2" d="m500.04,405.29h-2.97v-19.01c-1.09-.08-1.94-.13-2.91-.2v-2.22c.95-.08,1.8-.15,2.83-.24.15-2.56-.13-5.44,2.51-6.92,1.48-.83,3.3-1.06,5.05-1.58.5,1.89.55,2.85-1.41,3.03-2.69.25-3.52,1.94-2.93,5.58.74,0,1.52,0,2.31,0,.72,0,1.43,0,2.26,0,.05.84.08,1.49.13,2.34h-4.87v19.22Z"/>
  <path class="cls-2" d="m714.18,386.28c-1.11-.08-1.96-.14-2.95-.2-.04-.71-.07-1.34-.11-2.18,1-.1,1.9-.19,3.01-.3v-5.07h2.92v5.14h5.84v2.44h-5.76c0,1.57,0,3,0,4.44,0,2.8-.01,5.6,0,8.4.02,3.31.66,3.94,4,3.97.53,0,1.06,0,1.75,0v2.37c-1.56,0-3.16.18-4.7-.04-2.37-.34-3.77-1.92-3.86-4.4-.15-3.93-.11-7.87-.15-11.8,0-.86,0-1.72,0-2.77Z"/>
  <path class="cls-2" d="m509.89,386.28c-1.11-.08-1.96-.14-2.94-.2-.04-.7-.07-1.34-.12-2.18,1-.1,1.89-.19,3.01-.3v-5.06h2.92v5.13h5.84v2.44h-5.75v4.03c0,2.93-.01,5.87,0,8.8.02,3.32.66,3.95,3.99,3.98.53,0,1.06,0,1.75,0v2.33c-1.62,0-3.29.21-4.88-.05-2.29-.37-3.59-1.93-3.68-4.34-.14-3.93-.11-7.87-.15-11.8,0-.86,0-1.72,0-2.78Z"/>
  <path class="cls-2" d="m338.12,402.9c-.05,1-.08,1.64-.11,2.4-1.64,0-3.18.16-4.66-.04-2.45-.33-3.87-1.93-3.96-4.52-.14-4-.11-8-.14-12,0-.79,0-1.57,0-2.45-1.05-.07-1.89-.14-2.89-.21v-2.2c.9-.1,1.8-.2,2.91-.32v-5.07h2.92v5.17h5.79c.05.83.09,1.52.15,2.43h-5.84c0,4.99-.06,9.77.04,14.54.03,1.48,1.15,2.19,2.59,2.25.98.04,1.97,0,3.22,0Z"/>
  <path class="cls-2" d="m591.78,383.42v2.75c-6.57,1.43-7.23,2.26-7.23,9.16v9.91h-2.73v-21.39h2.61c.07.95.14,1.79.22,2.91,1.91-2.31,4.16-3.48,7.12-3.35Z"/>
  <path class="cls-2" d="m428.82,376.18h2.54v29.05h-2.54v-29.05Z"/>
  <path class="cls-2" d="m682.14,405.29h-2.58v-29.07h2.58v29.07Z"/>
  <path class="cls-2" d="m345.25,405.31h-2.56v-21.46h2.56v21.46Z"/>
  <path class="cls-2" d="m727.63,383.8h2.56v21.45h-2.56v-21.45Z"/>
  <circle class="cls-2" cx="343.97" cy="380.11" r="2.15"/>
  <circle class="cls-2" cx="728.92" cy="380.11" r="2.15"/>
</svg>